name analog
datacolumns 19
datarows 47
range 0.0 0.023
endheader
time	ground_force_vx	ground_force_vy	ground_force_vz	ground_force_px	ground_force_py	ground_force_pz	l_ground_force_vx	l_ground_force_vy	l_ground_force_vz	l_ground_force_px	l_ground_force_py	l_ground_force_pz	ground_torque_x	ground_torque_y	ground_torque_z	l_ground_torque_x	l_ground_torque_y	l_ground_torque_z
0.0	-0.0	-0.0	-0.0	4.718194484710693	36.84071731567383	-344.37615966796875	-4.629490375518799	-39.21482849121094	-269.89422607421875	-0.0	-0.0	-0.0	-0.0	-0.0	-0.0	66252.671875	11231.5712890625	-2864.271484375
0.0005	-0.0	-0.0	-0.0	4.92680549621582	36.73183441162109	-345.7145690917969	-4.612960815429688	-38.78947830200195	-269.0925598144531	-0.0	-0.0	-0.0	-0.0	-0.0	-0.0	66353.3671875	11471.44921875	-2958.654052734375
0.001	-0.0	-0.0	-0.0	4.39285135269165	36.68987274169922	-344.8077087402344	-4.326503753662109	-38.69501876831055	-270.100341796875	-0.0	-0.0	-0.0	-0.0	-0.0	-0.0	66368.3984375	11603.990234375	-2899.07275390625
0.0015	-0.0	-0.0	-0.0	4.318879127502441	36.56966018676758	-344.9530334472656	-4.440909385681152	-38.69522857666016	-269.4422607421875	-0.0	-0.0	-0.0	-0.0	-0.0	-0.0	66135.0234375	11169.98046875	-2967.190673828125
0.002	-0.0	-0.0	-0.0	4.271396160125732	36.78471374511719	-347.80224609375	-4.649546146392822	-38.88749313354492	-269.5450439453125	-0.0	-0.0	-0.0	-0.0	-0.0	-0.0	66631.1640625	11404.7275390625	-2852.216796875
0.0025	-0.0	-0.0	-0.0	4.449567794799805	36.89998626708984	-347.0726318359375	-4.701671600341797	-39.08549880981445	-269.21337890625	-0.0	-0.0	-0.0	-0.0	-0.0	-0.0	66246.0078125	11312.373046875	-2911.659912109375
0.003	-0.0	-0.0	-0.0	5.070131301879883	36.83685302734375	-346.0722045898437	-4.816298484802246	-39.038185119628906	-269.8510437011719	-0.0	-0.0	-0.0	-0.0	-0.0	-0.0	66227.71875	11703.3447265625	-2950.080810546875
0.0035	-0.0	-0.0	-0.0	4.943849563598633	36.46562576293945	-347.89556884765625	-4.472517967224121	-38.92411422729492	-270.330810546875	-0.0	-0.0	-0.0	-0.0	-0.0	-0.0	66136.4140625	11877.578125	-2944.8740234375
0.004	-0.0	-0.0	-0.0	4.713821887969971	36.94893264770508	-349.2381896972656	-4.661464691162109	-38.88721466064453	-268.5990905761719	-0.0	-0.0	-0.0	-0.0	-0.0	-0.0	66303.5	11570.7119140625	-2992.01708984375
0.0045000000000000005	-0.0	-0.0	-0.0	4.883089065551758	36.64432907104492	-347.780029296875	-4.638680458068848	-38.71050643920898	-269.0491943359375	-0.0	-0.0	-0.0	-0.0	-0.0	-0.0	66189.6015625	11596.359375	-2962.334716796875
0.005	-0.0	-0.0	-0.0	4.918542861938477	37.12969970703125	-347.7401428222656	-4.741192817687988	-39.01265335083008	-269.14129638671875	-0.0	-0.0	-0.0	-0.0	-0.0	-0.0	66187.234375	11706.9638671875	-2886.756591796875
0.0055	-0.0	-0.0	-0.0	4.82951021194458	36.91352462768555	-350.5043029785156	-4.776743412017822	-38.86154174804688	-269.00115966796875	-0.0	-0.0	-0.0	-0.0	-0.0	-0.0	66131.8046875	11937.5732421875	-3017.892333984375
0.006	-0.0	-0.0	-0.0	4.91887092590332	37.1171989440918	-349.85113525390625	-5.005439281463623	-38.82407379150391	-268.05322265625	-0.0	-0.0	-0.0	-0.0	-0.0	-0.0	66233.046875	11675.1865234375	-2962.74609375
0.006500000000000001	-0.0	-0.0	-0.0	5.05944299697876	37.00212097167969	-348.7909851074219	-5.16991662979126	-38.873836517333984	-269.2961120605469	-0.0	-0.0	-0.0	-0.0	-0.0	-0.0	66169.9140625	11890.9462890625	-2912.3701171875
0.007	-0.0	-0.0	-0.0	4.75364875793457	37.14191055297852	-350.20318603515625	-5.018586158752441	-39.11370849609375	-267.6499938964844	-0.0	-0.0	-0.0	-0.0	-0.0	-0.0	66116.1796875	12081.466796875	-3170.575439453125
0.0075	-0.0	-0.0	-0.0	4.932019710540772	37.16770935058594	-351.9202880859375	-4.726979732513428	-39.088680267333984	-268.49761962890625	-0.0	-0.0	-0.0	-0.0	-0.0	-0.0	65936.328125	12380.3369140625	-3132.245849609375
0.008	-0.0	-0.0	-0.0	4.931936740875244	37.35967254638672	-350.0497131347656	-5.246871471405029	-38.88669204711914	-268.6964416503906	-0.0	-0.0	-0.0	-0.0	-0.0	-0.0	65727.0078125	12268.583984375	-3246.9892578125
0.0085	-0.0	-0.0	-0.0	5.09702205657959	37.192665100097656	-350.85546875	-5.056514739990234	-38.58354949951172	-266.251953125	-0.0	-0.0	-0.0	-0.0	-0.0	-0.0	65859.859375	12311.5830078125	-3272.386474609375
0.009000000000000001	-0.0	-0.0	-0.0	5.187728404998779	37.3204345703125	-350.3009948730469	-5.411357879638672	-38.93810272216797	-268.34625244140625	-0.0	-0.0	-0.0	-0.0	-0.0	-0.0	66097.828125	12450.48046875	-3196.194580078125
0.0095	-0.0	-0.0	-0.0	5.416680335998535	37.45990753173828	-350.4541015625	-5.500068664550781	-38.8750114440918	-268.1938781738281	-0.0	-0.0	-0.0	-0.0	-0.0	-0.0	65754.125	12687.09375	-3353.58447265625
0.01	-0.0	-0.0	-0.0	5.057239055633545	37.40968322753906	-349.33941650390625	-5.461380958557129	-38.87516021728516	-268.0054016113281	-0.0	-0.0	-0.0	-0.0	-0.0	-0.0	66046.7890625	12589.3408203125	-3352.858154296875
0.0105	-0.0	-0.0	-0.0	5.084999084472656	37.26739883422852	-349.0408630371094	-5.752277374267578	-38.73453903198242	-267.79931640625	-0.0	-0.0	-0.0	-0.0	-0.0	-0.0	66104.890625	12806.0009765625	-3374.30224609375
0.011	-0.0	-0.0	-0.0	5.6488213539123535	37.33137130737305	-350.3968811035156	-5.563900470733643	-38.85078811645508	-267.8418273925781	-0.0	-0.0	-0.0	-0.0	-0.0	-0.0	66111.3359375	12972.552734375	-3425.189697265625
0.0115	-0.0	-0.0	-0.0	5.78824520111084	37.54239273071289	-349.1390380859375	-5.996970653533936	-38.695404052734375	-267.79931640625	-0.0	-0.0	-0.0	-0.0	-0.0	-0.0	65978.53125	12941.5087890625	-3417.160400390625
0.012	-0.0	-0.0	-0.0	5.813406467437744	37.15266799926758	-348.23541259765625	-5.943622589111328	-38.93968963623047	-268.4002685546875	-0.0	-0.0	-0.0	-0.0	-0.0	-0.0	66245.4921875	13244.990234375	-3565.532470703125
0.0125	-0.0	-0.0	-0.0	5.783808708190918	37.11786651611328	-349.7658996582031	-6.145726203918457	-38.70947265625	-268.5370178222656	-0.0	-0.0	-0.0	-0.0	-0.0	-0.0	66048.921875	13198.5302734375	-3676.037109375
0.013000000000000001	-0.0	-0.0	-0.0	5.87830114364624	37.05356979370117	-349.1971740722656	-6.411780834197998	-38.88603973388672	-269.00225830078125	-0.0	-0.0	-0.0	-0.0	-0.0	-0.0	66469.7421875	13594.4443359375	-3603.785888671875
0.0135	-0.0	-0.0	-0.0	5.734103679656982	36.89398956298828	-348.1010437011719	-6.298465728759766	-38.87093353271485	-268.75018310546875	-0.0	-0.0	-0.0	-0.0	-0.0	-0.0	66509.203125	13639.2353515625	-3786.73681640625
0.014	-0.0	-0.0	-0.0	5.912473678588867	36.94910430908203	-348.0768737792969	-6.604339599609375	-39.342716217041016	-269.70147705078125	-0.0	-0.0	-0.0	-0.0	-0.0	-0.0	66554.1953125	13787.0419921875	-3903.764892578125
0.0145	-0.0	-0.0	-0.0	6.099589824676514	37.03807067871094	-349.0040283203125	-6.460382461547852	-39.19053268432617	-268.689697265625	-0.0	-0.0	-0.0	-0.0	-0.0	-0.0	66681.9453125	13862.8671875	-3908.697998046875
0.015	-0.0	-0.0	-0.0	6.147005081176758	37.38482284545898	-347.8485107421875	-6.863709449768066	-39.32738494873047	-271.1610107421875	-0.0	-0.0	-0.0	-0.0	-0.0	-0.0	66782.1171875	14021.333984375	-3995.10107421875
0.0155	-0.0	-0.0	-0.0	6.21260929107666	36.7864990234375	-346.5331115722656	-7.04828691482544	-39.35151672363281	-270.6548767089844	-0.0	-0.0	-0.0	-0.0	-0.0	-0.0	67119.4921875	14364.7255859375	-4073.682373046875
0.016	-0.0	-0.0	-0.0	6.820610523223877	36.68115234375	-345.6985778808594	-7.08076810836792	-39.47979736328125	-271.1322021484375	-0.0	-0.0	-0.0	-0.0	-0.0	-0.0	66904.6484375	14585.2939453125	-4108.701171875
0.0165	-0.0	-0.0	-0.0	7.185338973999023	36.72950744628906	-344.0316162109375	-7.379240036010742	-39.57599639892578	-272.7825012207031	-0.0	-0.0	-0.0	-0.0	-0.0	-0.0	66989.3203125	14558.5224609375	-4343.60498046875
0.017	-0.0	-0.0	-0.0	8.142327308654785	36.6808967590332	-344.3504638671875	-7.161495685577393	-39.8570556640625	-272.8470153808594	-0.0	-0.0	-0.0	-0.0	-0.0	-0.0	67622.921875	14686.7197265625	-4270.73583984375
0.0175	-0.0	-0.0	-0.0	8.159164428710938	36.34112548828125	-342.1644287109375	-7.444383144378662	-40.20298004150391	-273.509033203125	-0.0	-0.0	-0.0	-0.0	-0.0	-0.0	67840.578125	15031.0390625	-4457.08349609375
0.018000000000000002	-0.0	-0.0	-0.0	8.474998474121094	36.35822296142578	-341.6478881835937	-7.403789520263672	-40.38686752319336	-275.6972351074219	-0.0	-0.0	-0.0	-0.0	-0.0	-0.0	68086.0078125	15203.6533203125	-4508.43505859375
0.0185	-0.0	-0.0	-0.0	9.171375274658203	35.978084564208984	-339.14764404296875	-7.594960212707519	-40.67551803588867	-276.528076171875	-0.0	-0.0	-0.0	-0.0	-0.0	-0.0	68300.4921875	15473.1142578125	-4613.6591796875
0.019	-0.0	-0.0	-0.0	9.72394561767578	35.782657623291016	-337.2175598144531	-7.458241462707519	-41.15140151977539	-280.3687744140625	-0.0	-0.0	-0.0	-0.0	-0.0	-0.0	68588.6484375	15508.5927734375	-4694.71240234375
0.0195	-0.0	-0.0	-0.0	10.479133605957031	35.865692138671875	-337.52105712890625	-7.806549072265625	-41.687835693359375	-280.3001708984375	-0.0	-0.0	-0.0	-0.0	-0.0	-0.0	69102.8515625	15590.14453125	-4770.3330078125
0.02	-0.0	-0.0	-0.0	11.4189453125	35.40265655517578	-333.8491516113281	-7.895259857177734	-42.08827209472656	-283.32470703125	-0.0	-0.0	-0.0	-0.0	-0.0	-0.0	69518.59375	16082.603515625	-4802.14208984375
0.0205	-0.0	-0.0	-0.0	11.728347778320312	35.206512451171875	-332.1994323730469	-7.960341453552246	-43.00688171386719	-283.2778015136719	-0.0	-0.0	-0.0	-0.0	-0.0	-0.0	69965.5	16129.314453125	-4948.71728515625
0.021	-0.0	-0.0	-0.0	12.221839904785156	34.77912902832031	-331.07440185546875	-7.764940738677978	-42.94778823852539	-285.81304931640625	-0.0	-0.0	-0.0	-0.0	-0.0	-0.0	70325.140625	16268.64453125	-5102.89501953125
0.021500000000000002	-0.0	-0.0	-0.0	12.67623233795166	34.54056930541992	-330.1098327636719	-7.923959732055664	-44.11928176879883	-288.72784423828125	-0.0	-0.0	-0.0	-0.0	-0.0	-0.0	70937.7578125	16260.4560546875	-5105.0966796875
0.022	-0.0	-0.0	-0.0	12.57868194580078	33.96355438232422	-326.26446533203125	-8.025816917419434	-44.50913619995117	-289.5389404296875	-0.0	-0.0	-0.0	-0.0	-0.0	-0.0	71161.75	16658.84765625	-5220.53515625
0.0225	-0.0	-0.0	-0.0	12.470576286315918	34.019859313964844	-323.4768371582031	-7.759850025177002	-45.39734649658203	-291.3762512207031	-0.0	-0.0	-0.0	-0.0	-0.0	-0.0	71427.4765625	16891.453125	-5156.736328125
0.023	-0.0	-0.0	-0.0	12.47895050048828	32.935829162597656	-323.68096923828125	-7.829833984375	-45.141204833984375	-292.6632995605469	-0.0	-0.0	-0.0	-0.0	-0.0	-0.0	71789.5625	16774.55078125	-5244.2109375
